<svg xmlns="http://www.w3.org/2000/svg" viewBox="0 0 80 88" width="512" height="563">
  <defs>
    <linearGradient id="lr" x1="0%" y1="0%" x2="100%" y2="0%">
      <stop offset="0%" stop-color="#15803d"/><stop offset="100%" stop-color="#4ade80"/>
    </linearGradient>
  </defs>
  <path d="M40 20 C20 20 8 36 8 52 C8 62 14 70 22 74 L18 82 L28 78 C32 80 36 80 40 80 C44 80 48 80 52 78 L62 82 L58 74 C66 70 72 62 72 52 C72 36 60 20 40 20 Z" fill="url(#lr)" stroke="#14532d" stroke-width="1"/>
  <path d="M40 32 L44 44 L56 44 L46 52 L50 64 L40 56 L30 64 L34 52 L24 44 L36 44 Z" fill="#fef08a" stroke="#ca8a04" stroke-width="0.8"/>
</svg>
