<svg xmlns="http://www.w3.org/2000/svg" viewBox="0 0 80 94" width="512" height="601">
  <defs>
    <linearGradient id="b1" x1="0%" y1="0%" x2="100%" y2="100%">
      <stop offset="0%" stop-color="#fef9c3"/><stop offset="35%" stop-color="#eab308"/><stop offset="100%" stop-color="#713f12"/>
    </linearGradient>
    <linearGradient id="b2" x1="0%" y1="0%" x2="0%" y2="100%">
      <stop offset="0%" stop-color="#fcd34d"/><stop offset="100%" stop-color="#b45309"/>
    </linearGradient>
  </defs>
  <path d="M18 78 L26 62 L32 78 L40 64 L48 78 L54 62 L62 78 L58 86 L22 86 Z" fill="#0f172a" stroke="#ca8a04" stroke-width="0.75"/>
  <path d="M40 6 L44.2 18.5 L57 12 L51.5 24.5 L65 28 L51.8 33.5 L56.5 46 L43 40 L40 54 L37 40 L23.5 46 L28.2 33.5 L15 28 L28.5 24.5 L23 12 L35.8 18.5 Z" fill="url(#b1)" stroke="#ca8a04" stroke-width="0.55"/>
  <circle cx="40" cy="31" r="17" fill="url(#b2)" stroke="#ca8a04" stroke-width="0.65"/>
  <g stroke="#020617" stroke-width="2" fill="none"><rect x="31" y="25" width="18" height="12" rx="1"/><line x1="34" y1="29" x2="46" y2="29"/><line x1="34" y1="33" x2="42" y2="33"/></g>
</svg>
