<svg xmlns="http://www.w3.org/2000/svg" viewBox="0 0 80 94" width="512" height="601">
  <defs>
    <linearGradient id="v1" x1="0%" y1="0%" x2="100%" y2="100%">
      <stop offset="0%" stop-color="#fae8ff"/><stop offset="40%" stop-color="#c084fc"/><stop offset="100%" stop-color="#6b21a8"/>
    </linearGradient>
    <linearGradient id="v2" x1="20%" y1="0%" x2="80%" y2="100%">
      <stop offset="0%" stop-color="#fef08a"/><stop offset="100%" stop-color="#a855f7"/>
    </linearGradient>
  </defs>
  <path d="M18 78 L26 62 L32 78 L40 64 L48 78 L54 62 L62 78 L58 86 L22 86 Z" fill="#581c87" stroke="#7c3aed" stroke-width="0.75"/>
  <path d="M40 6 L44.2 18.5 L57 12 L51.5 24.5 L65 28 L51.8 33.5 L56.5 46 L43 40 L40 54 L37 40 L23.5 46 L28.2 33.5 L15 28 L28.5 24.5 L23 12 L35.8 18.5 Z" fill="url(#v1)" stroke="#7c3aed" stroke-width="0.55"/>
  <circle cx="40" cy="31" r="17" fill="url(#v2)" stroke="#7c3aed" stroke-width="0.65"/>
  <path d="M40 22 L43 30 L51 30.5 L45 35.5 L47.5 44 L40 39 L32.5 44 L35 35.5 L29 30.5 L37 30 Z" fill="#2e1065"/>
</svg>
